<svg width="16" height="11" fill="none" xmlns="http://www.w3.org/2000/svg"><path d="M.5 10.539a.492.492 0 01-.5-.502.48.48 0 01.144-.356.482.482 0 01.356-.143h15c.142 0 .26.048.356.144a.485.485 0 01.144.357c0 .142-.048.26-.144.356a.486.486 0 01-.356.143l-15 .001zm0-4.77a.49.49 0 01-.5-.501.487.487 0 01.5-.499h15a.49.49 0 01.5.501.487.487 0 01-.5.499H.5zm0-4.77A.483.483 0 01.144.856.485.485 0 010 .499C0 .357.048.239.144.143A.485.485 0 01.5 0h15a.488.488 0 01.5.499.48.48 0 01-.144.356.48.48 0 01-.356.144H.5z" fill="#000"/></svg>