<svg width="19" height="19" fill="none" xmlns="http://www.w3.org/2000/svg"><path d="M9.998 18.671L0 8.692V0h8.692l9.993 10.004-8.687 8.667zm0-1.421l7.266-7.265-8.998-8.966H1v7.266l8.998 8.965zM3.55 4.558c.28 0 .519-.097.715-.292a.957.957 0 00.293-.708.991.991 0 00-.292-.722.956.956 0 00-.708-.297.986.986 0 00-.722.295.972.972 0 00-.297.716c0 .28.098.519.295.715a.973.973 0 00.716.293zM10 13.923l3.039-3.154a1.47 1.47 0 00.331-.506c.076-.192.114-.404.114-.636 0-.426-.151-.797-.453-1.114a1.461 1.461 0 00-1.096-.475c-.326 0-.647.085-.964.256-.317.17-.64.473-.971.906-.347-.44-.674-.744-.982-.911a1.978 1.978 0 00-.953-.25 1.46 1.46 0 00-1.096.475 1.561 1.561 0 00-.453 1.113c0 .232.038.444.114.637.076.192.186.36.331.505L10 13.923z" fill="#000"/></svg>