<svg width="28" height="28" viewBox="0 0 28 28" fill="none" xmlns="http://www.w3.org/2000/svg">
<path d="M14.6034 6.19264C15.1815 5.54107 15.8843 5.01197 16.6704 4.6366C17.4564 4.26123 18.3097 4.04719 19.1799 4.00714C20.05 3.96708 20.9194 4.10182 21.7366 4.4034C22.5538 4.70497 23.3023 5.16727 23.9378 5.76297C24.5733 6.35867 25.083 7.0757 25.4368 7.8717C25.7906 8.6677 25.9812 9.52653 25.9975 10.3974C26.0138 11.2684 25.8553 12.1337 25.5316 12.9424C25.2078 13.751 24.7252 14.4866 24.1124 15.1056L14.5324 24.7776C14.4626 24.8481 14.3796 24.904 14.2881 24.9422C14.1967 24.9803 14.0985 25 13.9994 25C13.9003 25 13.8021 24.9803 13.7106 24.9422C13.6191 24.904 13.5361 24.8481 13.4664 24.7776L3.88639 15.1056C2.72481 13.9322 2.05167 12.3618 2.00285 10.7115C1.95404 9.06108 2.53319 7.45364 3.62339 6.21364C6.21139 3.27064 10.7934 3.26064 13.3954 6.19264L13.9994 6.87264L14.6034 6.19264ZM23.2494 7.20364C22.7795 6.66947 22.2014 6.2413 21.5534 5.94749C20.9055 5.65369 20.2024 5.50096 19.491 5.49945C18.7795 5.49794 18.0759 5.64767 17.4267 5.93871C16.7775 6.22976 16.1976 6.65548 15.7254 7.18764L14.5594 8.50064C14.489 8.57995 14.4026 8.64343 14.3059 8.68691C14.2092 8.73039 14.1044 8.75287 13.9984 8.75287C13.8924 8.75287 13.7875 8.73039 13.6908 8.68691C13.5941 8.64343 13.5078 8.57995 13.4374 8.50064L12.2724 7.18764C11.8282 6.68229 11.287 6.27137 10.6809 5.9793C10.0748 5.68723 9.41623 5.51998 8.74422 5.48748C8.07221 5.45498 7.40053 5.5579 6.76907 5.79011C6.13762 6.02232 5.5593 6.3791 5.06845 6.83924C4.57761 7.29937 4.18427 7.85348 3.9118 8.46863C3.63933 9.08379 3.4933 9.74744 3.48238 10.4201C3.47146 11.0928 3.59588 11.7609 3.84823 12.3846C4.10059 13.0082 4.47574 13.5748 4.95139 14.0506L13.9994 23.1846L23.0464 14.0506C23.941 13.1472 24.4595 11.938 24.4972 10.6671C24.5349 9.39629 24.0889 8.15847 23.2494 7.20364Z" fill="black"/>
</svg>
