<svg width="45" height="45" fill="none" xmlns="http://www.w3.org/2000/svg"><rect width="45" height="45" rx="22.5" fill="#000"/><path d="M16.594 8.438h11.812c4.5 0 8.157 3.656 8.157 8.156v11.812a8.156 8.156 0 01-8.157 8.157H16.594c-4.5 0-8.157-3.657-8.157-8.157V16.594a8.156 8.156 0 018.157-8.157zm-.282 2.812a5.062 5.062 0 00-5.062 5.063v12.375a5.06 5.06 0 005.063 5.062h12.375a5.062 5.062 0 005.062-5.063V16.313a5.06 5.06 0 00-5.063-5.062H16.313zm13.57 2.11a1.758 1.758 0 110 3.516 1.758 1.758 0 010-3.517zM22.5 15.468a7.03 7.03 0 110 14.061 7.03 7.03 0 010-14.061zm0 2.812a4.219 4.219 0 100 8.438 4.219 4.219 0 000-8.438z" fill="#fff"/></svg>