<svg width="45" height="45" viewBox="0 0 45 45" fill="none" xmlns="http://www.w3.org/2000/svg">
<rect width="45" height="45" rx="22.5" fill="black"/>
<path d="M16.5938 8.4375H28.4063C32.9063 8.4375 36.5625 12.0938 36.5625 16.5938V28.4063C36.5625 30.5694 35.7032 32.644 34.1736 34.1736C32.644 35.7032 30.5694 36.5625 28.4063 36.5625H16.5938C12.0938 36.5625 8.4375 32.9063 8.4375 28.4063V16.5938C8.4375 14.4306 9.29682 12.356 10.8264 10.8264C12.356 9.29682 14.4306 8.4375 16.5938 8.4375ZM16.3125 11.25C14.9698 11.25 13.6822 11.7834 12.7328 12.7328C11.7834 13.6822 11.25 14.9698 11.25 16.3125V28.6875C11.25 31.4859 13.5141 33.75 16.3125 33.75H28.6875C30.0302 33.75 31.3178 33.2166 32.2672 32.2672C33.2166 31.3178 33.75 30.0302 33.75 28.6875V16.3125C33.75 13.5141 31.4859 11.25 28.6875 11.25H16.3125ZM29.8828 13.3594C30.349 13.3594 30.7961 13.5446 31.1258 13.8742C31.4554 14.2039 31.6406 14.651 31.6406 15.1172C31.6406 15.5834 31.4554 16.0305 31.1258 16.3601C30.7961 16.6898 30.349 16.875 29.8828 16.875C29.4166 16.875 28.9695 16.6898 28.6399 16.3601C28.3102 16.0305 28.125 15.5834 28.125 15.1172C28.125 14.651 28.3102 14.2039 28.6399 13.8742C28.9695 13.5446 29.4166 13.3594 29.8828 13.3594ZM22.5 15.4688C24.3648 15.4688 26.1532 16.2095 27.4718 17.5282C28.7905 18.8468 29.5312 20.6352 29.5312 22.5C29.5312 24.3648 28.7905 26.1532 27.4718 27.4718C26.1532 28.7905 24.3648 29.5312 22.5 29.5312C20.6352 29.5312 18.8468 28.7905 17.5282 27.4718C16.2095 26.1532 15.4688 24.3648 15.4688 22.5C15.4688 20.6352 16.2095 18.8468 17.5282 17.5282C18.8468 16.2095 20.6352 15.4688 22.5 15.4688ZM22.5 18.2812C21.3811 18.2812 20.3081 18.7257 19.5169 19.5169C18.7257 20.3081 18.2812 21.3811 18.2812 22.5C18.2812 23.6189 18.7257 24.6919 19.5169 25.4831C20.3081 26.2743 21.3811 26.7188 22.5 26.7188C23.6189 26.7188 24.6919 26.2743 25.4831 25.4831C26.2743 24.6919 26.7188 23.6189 26.7188 22.5C26.7188 21.3811 26.2743 20.3081 25.4831 19.5169C24.6919 18.7257 23.6189 18.2812 22.5 18.2812Z" fill="white"/>
</svg>
