<svg width="45" height="45" fill="none" xmlns="http://www.w3.org/2000/svg"><path d="M22.5 0C10.073 0 0 10.073 0 22.5S10.073 45 22.5 45 45 34.927 45 22.5 34.927 0 22.5 0zm-5.508 31.826h-4.556V17.163h4.556v14.663zm-2.306-16.463c-1.44 0-2.37-1.02-2.37-2.28 0-1.287.959-2.276 2.428-2.276 1.47 0 2.37.99 2.398 2.276 0 1.26-.928 2.28-2.456 2.28zm18.947 16.463h-4.556V23.7c0-1.891-.661-3.176-2.309-3.176-1.259 0-2.006.87-2.337 1.706-.122.298-.152.72-.152 1.14v8.453H19.72V21.84c0-1.83-.058-3.36-.12-4.678h3.96l.208 2.037h.091c.6-.957 2.07-2.367 4.528-2.367 2.998 0 5.246 2.008 5.246 6.325v8.67z" fill="#000"/></svg>