<svg width="59" height="35" viewBox="0 0 59 35" fill="none" xmlns="http://www.w3.org/2000/svg">
<path d="M40.6875 0C50.469 9.47215e-05 58.3984 7.83514 58.3984 17.5C58.3984 27.1648 50.4689 34.9999 40.6875 35C36.3033 35 32.292 33.4246 29.1992 30.8174C26.1064 33.4246 22.0951 35 17.7109 35C7.92949 34.9999 6.57284e-05 27.1648 0 17.5C0 7.83512 7.92945 6.11148e-05 17.7109 0C22.0949 0 26.1064 1.57457 29.1992 4.18164C32.292 1.57459 36.3035 0 40.6875 0Z" fill="#E20022"/>
<path d="M40.6875 0C50.469 0 58.3984 7.83508 58.3984 17.5C58.3984 27.1649 50.469 35 40.6875 35C36.3033 34.9999 32.292 33.4247 29.1992 30.8174C33.0068 27.6076 35.4218 22.833 35.4219 17.5C35.4219 12.1668 33.007 7.39144 29.1992 4.18164C32.292 1.57451 36.3035 7.13313e-05 40.6875 0Z" fill="#F99E00"/>
<path d="M29.1992 4.1813C33.0071 7.39103 35.4218 12.1665 35.4219 17.4997C35.4219 22.8326 33.0067 27.6073 29.1992 30.817C25.3919 27.6073 22.9766 22.8325 22.9766 17.4997C22.9767 12.1666 25.3915 7.39103 29.1992 4.1813Z" fill="#E20022"/>
</svg>
