<svg width="59" height="35" fill="none" xmlns="http://www.w3.org/2000/svg"><path d="M40.688 0c9.781 0 17.71 7.835 17.71 17.5S50.468 35 40.688 35a17.766 17.766 0 01-11.489-4.183A17.766 17.766 0 0117.711 35C7.929 35 0 27.165 0 17.5S7.93 0 17.71 0c4.385 0 8.396 1.575 11.49 4.182A17.767 17.767 0 0140.687 0z" fill="#E20022"/><path d="M40.688 0c9.781 0 17.71 7.835 17.71 17.5S50.47 35 40.688 35a17.766 17.766 0 01-11.489-4.183c3.808-3.21 6.223-7.984 6.223-13.317S33.007 7.391 29.199 4.182A17.767 17.767 0 0140.687 0z" fill="#F99E00"/><path d="M29.2 4.181c3.807 3.21 6.222 7.985 6.222 13.319 0 5.333-2.415 10.107-6.223 13.317-3.807-3.21-6.222-7.985-6.222-13.317 0-5.333 2.415-10.109 6.222-13.319z" fill="#E20022"/></svg>