<svg width="76" height="25" fill="none" xmlns="http://www.w3.org/2000/svg"><path fill-rule="evenodd" clip-rule="evenodd" d="M19 24.774h-6.576L7.49 5.404c-.234-.89-.73-1.679-1.462-2.05C4.204 2.421 2.194 1.68 0 1.304V.558h10.595c1.463 0 2.56 1.12 2.742 2.422l2.56 13.972L22.47.558h6.394L19 24.774zm13.521 0h-6.212L31.424.558h6.212l-5.115 24.216zM45.672 7.267c.183-1.304 1.28-2.05 2.56-2.05 2.01-.187 4.2.187 6.029 1.117l1.096-5.214A15.33 15.33 0 0049.694 0c-6.029 0-10.416 3.354-10.416 8.01 0 3.541 3.107 5.4 5.3 6.52 2.374 1.118 3.288 1.864 3.105 2.98 0 1.676-1.828 2.422-3.652 2.422-2.194 0-4.387-.559-6.395-1.492l-1.097 5.217c2.194.93 4.567 1.305 6.76 1.305 6.76.183 10.962-3.168 10.962-8.197 0-6.334-8.589-6.706-8.589-9.498zM76 24.774L71.068.558H65.77c-1.097 0-2.193.746-2.56 1.863l-9.132 22.353h6.394l1.277-3.538h7.857l.73 3.538H76zM66.684 7.08l1.825 9.126h-5.115l3.29-9.126z" fill="#000"/></svg>